<svg id="1a3e9ac8-a7d1-4349-a472-a4c73c00aa2a" data-name="Layer 1" xmlns="http://www.w3.org/2000/svg" viewBox="0 0 27.27 24.42"><title>1</title><path d="M22.21,13.05h0s0,0,0-.07h0l0-.06v0s0,0,0-.05v0h0l0,0h0L22,12.69h0l-.05,0h0l-.07,0L12.81,7.42,18,4.12l8.78,5-3.7,2.33a.61.61,0,0,0-.19.85.61.61,0,0,0,.85.19l4.57-2.87a.65.65,0,0,0,.29-.54.63.63,0,0,0-.32-.52l-10-5.68a.62.62,0,0,0-.63,0l-6.42,4h0l-3.2,2h0L1.65,13a.63.63,0,0,0-.29.53.65.65,0,0,0,.32.53l10,5.68a.64.64,0,0,0,.3.08.56.56,0,0,0,.33-.1l4.57-2.87a.62.62,0,0,0-.66-1.05L12,18.47l-8.78-5,5.24-3.29,9.35,5.32v7a.63.63,0,0,0,.32.54.67.67,0,0,0,.3.08.56.56,0,0,0,.33-.1l3.21-2a.61.61,0,0,0,.29-.52v-7.4h0a.2.2,0,0,0,0-.07ZM19,21.43V15.15a.63.63,0,0,0-.31-.54L9.6,9.44l2-1.27,8.78,5-.77.49a.61.61,0,0,0-.19.85.6.6,0,0,0,.52.29.58.58,0,0,0,.33-.1l.69-.44v6Zm0,0" transform="translate(-1.36 -2.79)" fill="#f9ac17"/><path d="M27.69,11l-4.57,2.88a.61.61,0,0,0-.19.85.64.64,0,0,0,.52.29.58.58,0,0,0,.33-.1l4.57-2.87A.62.62,0,0,0,27.69,11Zm0,0" transform="translate(-1.36 -2.79)" fill="#f9ac17"/><path d="M16.21,18.26,12,20.94l-9.67-5.5a.63.63,0,0,0-.85.23.62.62,0,0,0,.24.84l10,5.68a.55.55,0,0,0,.3.09.64.64,0,0,0,.33-.1l4.57-2.88a.62.62,0,0,0-.66-1Zm0,0" transform="translate(-1.36 -2.79)" fill="#f9ac17"/><path d="M27.69,13.5l-4.57,2.88a.61.61,0,0,0-.19.85.63.63,0,0,0,.52.28.66.66,0,0,0,.33-.09l4.57-2.88a.62.62,0,0,0-.66-1Zm0,0" transform="translate(-1.36 -2.79)" fill="#f9ac17"/><path d="M16.21,20.73,12,23.41l-9.67-5.5a.63.63,0,0,0-.85.23.62.62,0,0,0,.24.84l10,5.68a.54.54,0,0,0,.3.08.63.63,0,0,0,.33-.09l4.57-2.88a.62.62,0,0,0-.66-1Zm0,0" transform="translate(-1.36 -2.79)" fill="#f9ac17"/><path d="M27.69,16l-4.57,2.87A.62.62,0,0,0,23.45,20a.66.66,0,0,0,.33-.09L28.35,17a.62.62,0,0,0-.66-1Zm0,0" transform="translate(-1.36 -2.79)" fill="#f9ac17"/><path d="M16.21,23.2,12,25.88l-9.67-5.5a.62.62,0,1,0-.61,1.07l10,5.68a.64.64,0,0,0,.3.08.63.63,0,0,0,.33-.09l4.57-2.88a.61.61,0,0,0,.19-.85.61.61,0,0,0-.85-.19Zm0,0" transform="translate(-1.36 -2.79)" fill="#f9ac17"/></svg>