<svg xmlns="http://www.w3.org/2000/svg" xmlns:xlink="http://www.w3.org/1999/xlink" viewBox="0 0 30 30"><defs><style>.cls-1{fill:none;}.cls-2{isolation:isolate;}.cls-3{clip-path:url(#clip-path);}.cls-4{fill:#001924;}.cls-5{fill:#fff;}.cls-6{fill:#fad007;}.cls-7{opacity:0.1;mix-blend-mode:multiply;}</style><clipPath id="clip-path"><circle class="cls-1" cx="15" cy="15" r="15"/></clipPath></defs><title>m</title><g class="cls-2"><g id="Layer_1" data-name="Layer 1"><g class="cls-3"><polygon class="cls-4" points="31.21 18.89 20.69 18.89 20.69 15.14 17.5 18.89 11.8 18.89 11.8 15.14 8.88 18.88 0.74 18.88 0.74 18.76 11.45 4.96 17 4.96 17.02 9.03 20.92 4.96 27.45 4.96 27.45 10.98 31.21 10.98 31.21 4.96 31.21 3.17 0 3.17 0 26.62 31.24 26.62 31.24 18.89 31.21 18.89"/><path class="cls-5" d="M3.4,20H3v-.11h.42c.25,0,.7,0,.82-.16v.64h0a1.09,1.09,0,0,1,1-.56.78.78,0,0,1,.77.56,1.08,1.08,0,0,1,1-.56c.51,0,.78.29.78.94v1.68h.42v.11H6.57v-.11h.32V20.56c0-.36-.06-.54-.28-.54-.38,0-.63.48-.63.75v1.65h.33v.11H4.81v-.11h.34V20.56c0-.36-.06-.54-.29-.54-.38,0-.63.48-.63.75v1.65h.32v.11H3v-.11H3.4Z"/><path class="cls-5" d="M11,22c0,.19,0,.3.14.3s.21-.18.21-.33h.11a.58.58,0,0,1-.64.59.61.61,0,0,1-.6-.38,1,1,0,0,1-.81.38c-.46,0-.93-.21-.93-.74s.59-.77,1.14-.81l.59-.05v-.5c0-.36-.06-.59-.51-.59-.21,0-.56.05-.55.18s.31.09.31.38a.34.34,0,0,1-.37.36.36.36,0,0,1-.39-.39c0-.34.44-.64,1-.64S11,20,11,20.66Zm-.79-.93-.48.05c-.39,0-.42.25-.42.57s0,.69.42.69.47-.29.48-.61Z"/><path class="cls-5" d="M13.35,22c.59,0,.87.26.87.84a1.29,1.29,0,0,1-1.38,1.3c-.67,0-1.19-.34-1.19-.79a.67.67,0,0,1,.52-.59v0a.57.57,0,0,1-.4-.6.66.66,0,0,1,.61-.69h0a.79.79,0,0,1-.5-.74,1,1,0,0,1,1-.88,1.25,1.25,0,0,1,.76.22.62.62,0,0,1,.46-.26c.18,0,.41.1.41.32a.29.29,0,0,1-.3.3.27.27,0,0,1-.28-.27.28.28,0,0,1,.16-.27h0c-.23,0-.29.16-.39.27a.89.89,0,0,1,.26.61,1,1,0,0,1-1.08.86.88.88,0,0,1-.24,0,.79.79,0,0,0-.2,0c-.23,0-.49.16-.49.31s.21.17.36.17Zm-1.09.76a.85.85,0,0,0-.25.62.78.78,0,0,0,.85.65c.61,0,1.15-.41,1.15-.85s-.2-.42-.8-.42Zm1.05-2.06c0-.69-.1-.77-.38-.77s-.37.27-.37.75c0,.73.13.81.37.81S13.3,21.42,13.31,20.68Z"/><path class="cls-5" d="M14.72,22.42h.41V20h-.41v-.11h.43c.24,0,.69,0,.81-.16v.64h0a1.07,1.07,0,0,1,1-.56c.57,0,.85.29.85.94v1.68h.41v.11H16.61v-.11H17V20.51c0-.42-.18-.49-.36-.49-.34,0-.64.44-.64.75v1.65h.36v.11h-1.6Z"/><path class="cls-5" d="M20.07,19.88h.43c.24,0,.69,0,.81-.16v2.7h.42v.11H20.48V22h0a1,1,0,0,1-1,.58c-.57,0-.85-.29-.85-.94V20h-.42v-.11h.43c.25,0,.69,0,.82-.16v2.09c0,.36.06.57.35.57s.64-.45.64-.83V20h-.41Z"/><path class="cls-5" d="M22.34,20h-.42v-.11h.43c.25,0,.69,0,.82-.16v.64h0a1.07,1.07,0,0,1,1-.56.77.77,0,0,1,.77.56,1.08,1.08,0,0,1,1-.56c.5,0,.78.29.78.94v1.68h.41v.11H25.51v-.11h.32V20.56c0-.36-.06-.54-.28-.54-.38,0-.64.48-.64.75v1.65h.33v.11H23.75v-.11h.33V20.56c0-.36-.06-.54-.28-.54-.38,0-.63.48-.63.75v1.65h.31v.11H21.92v-.11h.42Z"/><rect class="cls-4" x="5.58" y="-0.6" width="24.42" height="19.6"/><rect class="cls-4" x="5.13" y="26.53" width="20.95" height="4.37"/><polygon class="cls-6" points="26.4 5.51 20.12 5.51 16.37 9.43 16.36 5.51 11.03 5.51 0.74 18.76 0.74 18.88 8.55 18.88 11.36 15.29 11.37 18.89 16.84 18.89 19.9 15.29 19.9 18.89 30 18.89 30 11.3 26.4 11.3 26.4 5.51"/><path class="cls-7" d="M26.89,6a13.51,13.51,0,0,0-1.5-1.69A15,15,0,0,1,1.87,22.18,16.07,16.07,0,0,0,3.1,24.07,15,15,0,1,0,26.89,6Z"/></g></g></g></svg>