<svg xmlns="http://www.w3.org/2000/svg" viewBox="0 0 30 30"><defs><style>.cls-1{isolation:isolate;}.cls-2{fill:#fff;}.cls-2,.cls-3,.cls-4{fill-rule:evenodd;}.cls-3{fill:#e62e29;}.cls-4{fill:#231f20;}.cls-5{opacity:0.1;mix-blend-mode:multiply;}</style></defs><title>t</title><g class="cls-1"><g id="Layer_1" data-name="Layer 1"><path class="cls-2" d="M29.61,14.94A14.81,14.81,0,1,1,14.8,0,14.88,14.88,0,0,1,29.61,14.94Z"/><path class="cls-3" d="M6.49,2.77A15,15,0,0,0,1.26,8.93h.48A14,14,0,0,1,4.62,4.87,14.17,14.17,0,0,1,6.73,3.11l-.24-.34Z"/><path class="cls-3" d="M25.26,4.53a12.93,12.93,0,0,0-2.21-1.81l-.24.39a10.44,10.44,0,0,1,2.11,1.76A13.5,13.5,0,0,1,27.85,9h.48a14.71,14.71,0,0,0-3.07-4.45Z"/><path class="cls-3" d="M4.53,25a14.92,14.92,0,0,1-2.84-4.1H1.21a15.07,15.07,0,0,0,3,4.4l.34-.3Z"/><path class="cls-3" d="M25.35,25.25a13.94,13.94,0,0,0,3-4.35h-.48A16,16,0,0,1,25.07,25l.28.3Z"/><path class="cls-3" d="M8.46,5.6A11.75,11.75,0,0,0,5.2,8.93h.53A10.49,10.49,0,0,1,7.07,7.31,15.68,15.68,0,0,1,8.7,6L8.46,5.6Z"/><path class="cls-3" d="M22.81,7c-.53-.49-1.1-.93-1.68-1.37L20.89,6a15.14,15.14,0,0,1,1.58,1.32,10.64,10.64,0,0,1,1.35,1.62l.53.05a12.46,12.46,0,0,0-1.54-2Z"/><path class="cls-3" d="M5.34,24.12A13.07,13.07,0,0,1,3,20.85H2.51a12.44,12.44,0,0,0,2.54,3.57l.29-.3Z"/><path class="cls-3" d="M24.54,24.42A12,12,0,0,0,27,20.9h-.48a12.81,12.81,0,0,1-2.35,3.22l.34.3Z"/><path class="cls-3" d="M7.84,4.72A12.47,12.47,0,0,0,4,8.93h.48A13.12,13.12,0,0,1,6.3,6.53,16.22,16.22,0,0,1,8.08,5.07l-.24-.35Z"/><path class="cls-3" d="M23.58,6.19a17.24,17.24,0,0,0-1.83-1.51l-.24.39a12.15,12.15,0,0,1,1.73,1.46A11.78,11.78,0,0,1,25.16,9h.53a13.47,13.47,0,0,0-2.11-2.79Z"/><path class="cls-3" d="M6.25,23.29a11.56,11.56,0,0,1-1.87-2.44H3.85a12.84,12.84,0,0,0,2.07,2.73l.33-.29Z"/><path class="cls-3" d="M23.67,23.58a10.92,10.92,0,0,0,2-2.68h-.53a10.73,10.73,0,0,1-1.82,2.39l.33.29Z"/><path class="cls-3" d="M7.16,3.7a13.72,13.72,0,0,0-4.6,5.23h.53A12.6,12.6,0,0,1,5.44,5.65a14.89,14.89,0,0,1,2-1.56L7.16,3.7Z"/><path class="cls-3" d="M24.44,5.36a12.66,12.66,0,0,0-2-1.66l-.24.39a12.36,12.36,0,0,1,1.92,1.56A12.59,12.59,0,0,1,26.55,9H27a14.36,14.36,0,0,0-2.59-3.62Z"/><path class="cls-3" d="M22.86,22.85a9.73,9.73,0,0,0,1.53-2h-.52a11.3,11.3,0,0,1-1.3,1.61l.29.34Z"/><path class="cls-3" d="M7,22.56a12.07,12.07,0,0,1-1.39-1.71H5.1a8.75,8.75,0,0,0,1.59,2L7,22.56Z"/><path class="cls-4" d="M4,9.76H.88v5.18h1s.24-1.91,1.48-2.1V16.4A1.33,1.33,0,0,1,2,17.33V20H5.87V17.33a1.33,1.33,0,0,1-1.34-.93V12.84C5.73,13,6,14.94,6,14.94H7V9.76Z"/><path class="cls-4" d="M18.44,9.76H15.37v5.18h1s.24-1.91,1.49-2.1V16.4a1.34,1.34,0,0,1-1.35.93V20h3.84V17.33A1.33,1.33,0,0,1,19,16.4V12.84c1.2.19,1.44,2.1,1.44,2.1h1.05V9.76Z"/><path class="cls-3" d="M10.14,3.84c-.58-1-1.54-.39-1.87-1-.15-.25-.1-.39.05-.49s.38.1.48.34l.48-.24c-.34-.69-.77-.88-1.2-.59-.63.34-.53.83-.24,1.32.52,1,1.53.44,1.87,1,.14.19.14.39-.05.48s-.43-.09-.58-.39l-.48.25c.29.58.68,1,1.3.68.34-.24.72-.58.24-1.42Z"/><path class="cls-3" d="M13.79,3.6c-.34,0-.39-.39-.39-1.32s0-1.37.29-1.37.39.39.39,1.32,0,1.37-.29,1.37Zm0,.54c1,0,.91-1,.86-1.91s-.05-1.9-1-1.9-.86,1-.81,1.95.05,1.91,1,1.86Z"/><path class="cls-3" d="M16.14,1l.24.05c.19,0,.24.15.24.49s-.15.54-.34.49H16l.14-1ZM16,2.53l.14,0c.43.05.34.4.29.84a3.56,3.56,0,0,0,0,.73l.53.05A9.39,9.39,0,0,1,17,3.11c.05-.68-.29-.73-.43-.78h0c.38-.05.53-.39.62-.83,0-.64-.14-1-.52-1l-1-.14L15.23,4l.57,0L16,2.53Z"/><polygon class="cls-3" points="5.82 26.27 7.5 24.02 7.5 24.02 6.21 26.57 6.64 26.91 8.75 24.9 8.75 24.9 7.02 27.2 7.5 27.54 9.71 24.56 8.99 24.07 7.12 25.78 7.12 25.78 8.32 23.54 7.6 23 5.34 25.98 5.82 26.27 5.82 26.27"/><path class="cls-3" d="M23.39,26.71,23,26l.63-.49.62.54.43-.34-2.88-2.4-.57.44L23,27.05l.44-.34Zm-.29-1.56-.39.34-.81-1.42h0l1.2,1.08Z"/><path class="cls-3" d="M20.79,4.82c.63-1-.38-1.51,0-2.15.1-.19.29-.29.44-.19s.09.39-.05.63l.43.25c.43-.64.38-1-.1-1.32s-1-.05-1.29.44c-.53.93.38,1.56.05,2.1-.1.24-.29.34-.44.24s-.14-.44.05-.73L19.4,3.8c-.33.53-.53,1.07.05,1.46.38.2.86.34,1.34-.44Z"/><path class="cls-3" d="M10.72,1.55,11,1.5c.24-.1.38.1.48.39s0,.54-.1.59l-.29.09-.33-1Zm.48,3.13.52-.15-.48-1.42L11.63,3c.62-.2.48-.88.33-1.28-.24-.63-.52-1-1-.78l-1,.3,1.2,3.47Z"/><polygon class="cls-3" points="18.11 0.72 17.91 1.3 18.54 1.5 17.68 4.43 18.2 4.58 19.07 1.65 19.64 1.79 19.83 1.21 18.11 0.72 18.11 0.72"/><path class="cls-3" d="M8.8,28.18l.48-.69.67.3-.19.78.57.24.77-3.66-.67-.3L8.32,27.93l.48.25Zm1.29-1L9.61,27l.87-1.36h0l-.39,1.56Z"/><polygon class="cls-3" points="12.54 29.3 12.68 28.71 11.87 28.52 12.64 25.54 12.11 25.39 11.2 28.96 12.54 29.3 12.54 29.3"/><path class="cls-3" d="M13.88,29.45l.2-.83.76.05.1.83.58.05L15,25.83l-.72,0-1,3.62.57.05Zm.87-1.37h-.53l.34-1.56h0l.19,1.56Z"/><polygon class="cls-3" points="16.91 29.35 17.43 29.25 17.24 27.98 17.58 25.49 17 25.59 16.86 27.2 16.19 25.69 15.61 25.78 16.67 28.08 16.91 29.35 16.91 29.35"/><path class="cls-3" d="M20.55,27.2c-.48-1.07-1.44-.54-1.72-1.17-.15-.25-.1-.39.09-.49s.34.15.43.39l.53-.2c-.29-.73-.67-.92-1.2-.68s-.57.78-.33,1.27c.43,1,1.48.59,1.72,1.17.15.25.1.44,0,.54-.29.1-.44-.15-.58-.49l-.48.25c.19.58.58,1,1.2.78.38-.2.82-.49.38-1.37Z"/><polygon class="cls-3" points="22.38 27.35 20.46 24.22 19.98 24.51 21.9 27.64 22.38 27.35 22.38 27.35"/><path class="cls-4" d="M7.93,12.79v4.3c0,3.76,6.48,3.86,6.48,0V12.74c0-3.81-6.48-3.76-6.48,0Zm3.22,4.1a2,2,0,1,1,0-4.05,2,2,0,1,1,0,4.05Z"/><path class="cls-4" d="M22.43,12.79v4.3c0,3.76,6.47,3.86,6.47,0V12.74c0-3.81-6.47-3.76-6.47,0Zm3.21,4.1a2,2,0,1,1,0-4.05,2,2,0,1,1,0,4.05Z"/><path class="cls-5" d="M26.6,5.92a15.17,15.17,0,0,0-1.48-1.69,15.14,15.14,0,0,1-4,19.06A14.51,14.51,0,0,1,2,22.15,15.89,15.89,0,0,0,3.22,24a14.52,14.52,0,0,0,20.59,2.84A15.15,15.15,0,0,0,26.6,5.92Z"/></g></g></svg>