<?xml version="1.0" encoding="utf-8"?>
<!-- Generator: Adobe Illustrator 16.0.0, SVG Export Plug-In . SVG Version: 6.00 Build 0)  -->
<!DOCTYPE svg PUBLIC "-//W3C//DTD SVG 1.1//EN" "http://www.w3.org/Graphics/SVG/1.1/DTD/svg11.dtd">
<svg version="1.1" id="圖層_1" xmlns="http://www.w3.org/2000/svg" xmlns:xlink="http://www.w3.org/1999/xlink" x="0px" y="0px"
	 width="120px" height="120px" viewBox="0 0 120 120" enable-background="new 0 0 120 120" xml:space="preserve">
<g>
	<circle fill="#211F20" cx="60" cy="60" r="60"/>
	<g>
		<g>
			<path fill="#FFFFFF" d="M14.038,77.12h-1.644v-0.429h1.691c0.977,0,2.74,0,3.24-0.62v2.549h0.048
				c0.643-1.381,2.215-2.215,3.811-2.215c1.382,0,2.597,0.715,3.049,2.215c0.786-1.429,2.216-2.215,3.812-2.215
				c2.001,0,3.097,1.119,3.097,3.692v6.646h1.644v0.429h-6.194v-0.429h1.263v-7.361c0-1.405-0.238-2.12-1.12-2.12
				c-1.501,0-2.501,1.882-2.501,2.954v6.527h1.31v0.429h-5.931v-0.429h1.334v-7.361c0-1.405-0.238-2.12-1.12-2.12
				c-1.501,0-2.501,1.882-2.501,2.954v6.527h1.239v0.429h-6.17v-0.429h1.644V77.12z"/>
			<path fill="#FFFFFF" d="M44.125,85.267c0,0.739,0.119,1.191,0.548,1.191c0.572,0,0.833-0.715,0.833-1.334h0.429
				c0,1.405-1,2.334-2.548,2.334c-1.072,0-1.954-0.5-2.382-1.501c-0.62,1.145-2.263,1.501-3.192,1.501
				c-1.834,0-3.692-0.834-3.692-2.906c0-2.477,2.358-3.049,4.526-3.216l2.334-0.19v-2.001c0-1.429-0.238-2.311-2.025-2.311
				c-0.81,0-2.191,0.19-2.168,0.715c0.024,0.404,1.215,0.333,1.215,1.477c0,0.834-0.548,1.43-1.453,1.43
				c-1.072,0-1.549-0.715-1.549-1.549c0-1.334,1.739-2.501,4.122-2.501c2.454,0,5.002,0.667,5.002,3.383V85.267z M40.98,81.574
				l-1.882,0.19c-1.548,0.167-1.691,1.001-1.691,2.264c0,1.238,0.071,2.716,1.691,2.716c1.12,0,1.834-1.144,1.882-2.406V81.574z"/>
			<path fill="#FFFFFF" d="M53.629,85.028c2.335-0.047,3.478,1.001,3.478,3.312c0,2.906-2.167,5.146-5.479,5.146
				c-2.644,0-4.716-1.357-4.716-3.12c0-1.145,1.096-2.097,2.048-2.358v-0.048c-1-0.286-1.548-1.191-1.548-2.383
				c0-1.977,1.453-2.62,2.382-2.739v-0.048c-1.263-0.571-1.978-1.596-1.978-2.906c0-2.167,2.144-3.478,4.145-3.478
				c1.334,0,2.287,0.357,2.978,0.857c0.453-0.524,1.048-1.048,1.834-1.048c0.714,0,1.62,0.429,1.62,1.262
				c0,0.644-0.429,1.216-1.191,1.216c-0.715,0-1.096-0.548-1.096-1.096c0-0.477,0.143-0.787,0.643-1.049V76.5
				c-0.929,0.12-1.143,0.644-1.572,1.072c0.667,0.572,1.024,1.644,1.024,2.406c0,2.263-2.192,3.431-4.241,3.431
				c-0.381,0-0.691-0.048-0.977-0.144c-0.262-0.071-0.524-0.143-0.786-0.143c-0.905,0-1.93,0.643-1.93,1.238
				c0,0.644,0.81,0.667,1.406,0.667H53.629z M49.342,88.03c-0.643,0.69-1,1.382-1,2.43c0.047,1.144,1.215,2.597,3.359,2.597
				c2.406,0,4.55-1.62,4.55-3.358c0-1.454-0.786-1.668-3.168-1.668H49.342z M53.487,79.883c-0.024-2.739-0.381-3.049-1.501-3.049
				c-1.239,0-1.453,1.048-1.453,2.978c0,2.858,0.5,3.169,1.453,3.169C52.844,82.98,53.463,82.813,53.487,79.883z"/>
			<path fill="#FFFFFF" d="M58.704,86.744h1.644V77.12h-1.644v-0.429h1.691c0.977,0,2.739,0,3.239-0.62v2.549h0.048
				c0.644-1.381,2.216-2.215,3.812-2.215c2.263,0,3.359,1.119,3.359,3.692v6.646h1.644v0.429h-6.289v-0.429h1.357v-7.528
				c0-1.667-0.715-1.953-1.405-1.953c-1.334,0-2.525,1.739-2.525,2.954v6.527h1.406v0.429h-6.337V86.744z"/>
			<path fill="#FFFFFF" d="M80.191,76.691h1.691c0.977,0,2.739,0,3.24-0.62v10.673h1.644v0.429h-4.932v-2.001h-0.048
				c-0.643,1.452-2.215,2.286-3.811,2.286c-2.264,0-3.359-1.119-3.359-3.692V77.12h-1.644v-0.429h1.691c0.977,0,2.739,0,3.239-0.62
				v8.29c0,1.406,0.238,2.239,1.382,2.239c1.334,0,2.549-1.786,2.549-3.287V77.12h-1.644V76.691z"/>
			<path fill="#FFFFFF" d="M89.173,77.12h-1.644v-0.429h1.691c0.977,0,2.739,0,3.239-0.62v2.549h0.048
				c0.644-1.381,2.216-2.215,3.812-2.215c1.382,0,2.597,0.715,3.049,2.215c0.786-1.429,2.216-2.215,3.812-2.215
				c2.001,0,3.097,1.119,3.097,3.692v6.646h1.644v0.429h-6.193v-0.429h1.263v-7.361c0-1.405-0.238-2.12-1.119-2.12
				c-1.501,0-2.502,1.882-2.502,2.954v6.527h1.311v0.429h-5.932v-0.429h1.334v-7.361c0-1.405-0.238-2.12-1.12-2.12
				c-1.5,0-2.501,1.882-2.501,2.954v6.527h1.239v0.429h-6.17v-0.429h1.644V77.12z"/>
		</g>
		<polygon fill="#F7B61C" points="12.08,70.783 38.33,70.783 47.339,59.289 47.339,70.783 66.134,70.783 75.764,59.289 
			75.764,70.783 107.606,70.783 107.606,45.931 96.889,45.931 96.889,26.515 76.074,26.515 64.27,39.096 64.27,26.515 
			46.563,26.515 		"/>
	</g>
</g>
</svg>
