<?xml version="1.0" encoding="utf-8"?>
<!-- Generator: Adobe Illustrator 22.0.0, SVG Export Plug-In . SVG Version: 6.00 Build 0)  -->
<svg version="1.1" id="Layer_1" xmlns="http://www.w3.org/2000/svg" xmlns:xlink="http://www.w3.org/1999/xlink" x="0px" y="0px"
	 viewBox="0 0 30 30" style="enable-background:new 0 0 30 30;" xml:space="preserve">
<style type="text/css">
	.st0{clip-path:url(#SVGID_2_);fill:#FFFFFF;}
	.st1{clip-path:url(#SVGID_4_);}
	.st2{clip-path:url(#SVGID_6_);}
	.st3{opacity:0.1;clip-path:url(#SVGID_8_);enable-background:new    ;}
	.st4{clip-path:url(#SVGID_10_);fill:#FFFFFF;}
	.st5{clip-path:url(#SVGID_12_);}
	.st6{clip-path:url(#SVGID_14_);}
	.st7{clip-path:url(#SVGID_16_);}
	.st8{clip-path:url(#SVGID_18_);}
	.st9{opacity:0.1;clip-path:url(#SVGID_20_);enable-background:new    ;}
	.st10{clip-path:url(#SVGID_22_);fill:#FFFFFF;}
	.st11{clip-path:url(#SVGID_24_);}
	.st12{opacity:0.1;clip-path:url(#SVGID_26_);enable-background:new    ;}
	.st13{clip-path:url(#SVGID_28_);fill:#FFFFFF;}
	.st14{clip-path:url(#SVGID_30_);}
	.st15{opacity:0.1;clip-path:url(#SVGID_32_);enable-background:new    ;}
</style>
<g>
	<g>
		<defs>
			<circle id="SVGID_1_" cx="15" cy="15" r="13.3"/>
		</defs>
		<clipPath id="SVGID_2_">
			<use xlink:href="#SVGID_1_"  style="overflow:visible;"/>
		</clipPath>
		<rect x="1.7" y="0.7" class="st0" width="30.4" height="31.6"/>
	</g>
	<g>
		<defs>
			<circle id="SVGID_3_" cx="15" cy="15" r="13.3"/>
		</defs>
		<clipPath id="SVGID_4_">
			<use xlink:href="#SVGID_3_"  style="overflow:visible;"/>
		</clipPath>
		<g class="st1">
			<g>
				<defs>
					<rect id="SVGID_5_" x="6.3" y="4.2" width="18.3" height="21.4"/>
				</defs>
				<clipPath id="SVGID_6_">
					<use xlink:href="#SVGID_5_"  style="overflow:visible;"/>
				</clipPath>
				<g class="st2">
					
						<image style="overflow:visible;enable-background:new    ;" width="1220" height="649" xlink:href="B42D99E3247621CE.jpeg"  transform="matrix(4.931895e-02 0 0 4.931895e-02 -14.6721 -0.8677)">
					</image>
				</g>
			</g>
			<g>
				<defs>
					<circle id="SVGID_7_" cx="15" cy="15" r="13.3"/>
				</defs>
				<clipPath id="SVGID_8_">
					<use xlink:href="#SVGID_7_"  style="overflow:visible;"/>
				</clipPath>
				<path class="st3" d="M25.7,6.9c-0.4-0.5-0.9-1.1-1.3-1.5c3.1,5.7,1.7,13-3.6,17.1S8.1,26,3.4,21.5c0.3,0.6,0.7,1.2,1.1,1.7
					c4.5,5.9,12.9,7,18.8,2.5C29,21.2,30.1,12.8,25.7,6.9z"/>
			</g>
		</g>
		<g class="st1">
			<g>
				<defs>
					<circle id="SVGID_9_" cx="71.7" cy="-1.3" r="13.3"/>
				</defs>
				<clipPath id="SVGID_10_">
					<use xlink:href="#SVGID_9_"  style="overflow:visible;"/>
				</clipPath>
				<rect x="54.8" y="-15.3" class="st4" width="32.7" height="28.1"/>
			</g>
			<g>
				<defs>
					<circle id="SVGID_11_" cx="71.7" cy="-1.3" r="13.3"/>
				</defs>
				<clipPath id="SVGID_12_">
					<use xlink:href="#SVGID_11_"  style="overflow:visible;"/>
				</clipPath>
				<g class="st5">
					<g>
						<defs>
							<rect id="SVGID_13_" x="59.7" y="-8.4" width="23.7" height="10.7"/>
						</defs>
						<clipPath id="SVGID_14_">
							<use xlink:href="#SVGID_13_"  style="overflow:visible;"/>
						</clipPath>
						<g id="LvMzee_7_" class="st6">
							
								<image style="overflow:visible;enable-background:new    ;" width="411" height="259" id="LvMzee_6_" xlink:href="B42D99E3247621D2.jpeg"  transform="matrix(6.339393e-02 0 0 6.339393e-02 58.6734 -8.669)">
							</image>
						</g>
					</g>
					<g>
						<defs>
							<circle id="SVGID_15_" cx="71.7" cy="-1.3" r="13.3"/>
						</defs>
						<clipPath id="SVGID_16_">
							<use xlink:href="#SVGID_15_"  style="overflow:visible;"/>
						</clipPath>
						<g class="st7">
							<g>
								<defs>
									<rect id="SVGID_17_" x="61.1" y="2.6" width="20.4" height="4.6"/>
								</defs>
								<clipPath id="SVGID_18_">
									<use xlink:href="#SVGID_17_"  style="overflow:visible;"/>
								</clipPath>
								<g id="LvMzee_5_" class="st8">
									
										<image style="overflow:visible;enable-background:new    ;" width="403" height="269" id="LvMzee_12_" xlink:href="B42D99E3247621D2.jpeg"  transform="matrix(6.225804e-02 0 0 6.225804e-02 59.0563 -9.1173)">
									</image>
								</g>
							</g>
							<g>
								<defs>
									<circle id="SVGID_19_" cx="71.7" cy="-1.3" r="13.3"/>
								</defs>
								<clipPath id="SVGID_20_">
									<use xlink:href="#SVGID_19_"  style="overflow:visible;"/>
								</clipPath>
								<path class="st9" d="M82.4-9.4c-0.4-0.5-0.9-1.1-1.3-1.5c3.1,5.7,1.7,13-3.6,17.1c-5.3,4.1-12.7,3.5-17.4-1
									c0.3,0.6,0.7,1.2,1.1,1.7c4.5,5.9,12.9,7,18.8,2.5S86.9-3.5,82.4-9.4z"/>
							</g>
						</g>
						<g class="st7">
							<g>
								<defs>
									<circle id="SVGID_21_" cx="57.4" cy="-12.7" r="13.3"/>
								</defs>
								<clipPath id="SVGID_22_">
									<use xlink:href="#SVGID_21_"  style="overflow:visible;"/>
								</clipPath>
								<rect x="43.5" y="-26.3" class="st10" width="28.5" height="27.1"/>
							</g>
							<g>
								<defs>
									<circle id="SVGID_23_" cx="57.4" cy="-12.7" r="13.3"/>
								</defs>
								<clipPath id="SVGID_24_">
									<use xlink:href="#SVGID_23_"  style="overflow:visible;"/>
								</clipPath>
								<g class="st11">
									
										<image style="overflow:visible;enable-background:new    ;" width="1046" height="628" xlink:href="B42D99E3247621D6.jpeg"  transform="matrix(2.216686e-02 0 0 2.216686e-02 45.9723 -19.6462)">
									</image>
								</g>
							</g>
							<g>
								<defs>
									<circle id="SVGID_25_" cx="57.4" cy="-12.7" r="13.3"/>
								</defs>
								<clipPath id="SVGID_26_">
									<use xlink:href="#SVGID_25_"  style="overflow:visible;"/>
								</clipPath>
								<path class="st12" d="M68-20.8c-0.4-0.5-0.9-1.1-1.3-1.5c3.1,5.7,1.7,13-3.6,17.1s-12.7,3.5-17.4-1C46-5.6,46.4-5,46.8-4.5
									c4.5,5.9,12.9,7,18.8,2.5C71.4-6.5,72.5-14.9,68-20.8z"/>
							</g>
						</g>
						<g class="st7">
							<g>
								<defs>
									<circle id="SVGID_27_" cx="54" cy="-11" r="13.3"/>
								</defs>
								<clipPath id="SVGID_28_">
									<use xlink:href="#SVGID_27_"  style="overflow:visible;"/>
								</clipPath>
								<rect x="40.1" y="-24.6" class="st13" width="29.1" height="27.1"/>
							</g>
							<g>
								<defs>
									<circle id="SVGID_29_" cx="54" cy="-11" r="13.3"/>
								</defs>
								<clipPath id="SVGID_30_">
									<use xlink:href="#SVGID_29_"  style="overflow:visible;"/>
								</clipPath>
								<g class="st14">
									
										<image style="overflow:visible;enable-background:new    ;" width="1003" height="635" xlink:href="B42D99E3247621D6.jpeg"  transform="matrix(2.827741e-02 0 0 2.827741e-02 39.9389 -19.8667)">
									</image>
								</g>
							</g>
							<g>
								<defs>
									<circle id="SVGID_31_" cx="54" cy="-11" r="13.3"/>
								</defs>
								<clipPath id="SVGID_32_">
									<use xlink:href="#SVGID_31_"  style="overflow:visible;"/>
								</clipPath>
								<path class="st15" d="M64.7-19.2c-0.4-0.5-0.9-1.1-1.3-1.5c3.1,5.7,1.7,13-3.6,17.1s-12.7,3.5-17.4-1
									c0.3,0.6,0.7,1.2,1.1,1.7C48,3,56.4,4.1,62.3-0.4C68-4.9,69.1-13.3,64.7-19.2z"/>
							</g>
						</g>
					</g>
				</g>
			</g>
		</g>
	</g>
</g>
</svg>
